<svg fill="#fbfbfb" xmlns="http://www.w3.org/2000/svg" viewBox="0 0 24 24" width="24px" height="24px">
  <path d="M20,2H4C2.897,2,2,2.897,2,4v16c0,1.103,0.897,2,2,2h16c1.103,0,2-0.897,2-2V4C22,2.897,21.103,2,20,2z M8,18H5V10h3V18z M6.5,8.925c-0.924,0-1.675-0.75-1.675-1.675c0-0.924,0.75-1.675,1.675-1.675s1.675,0.75,1.675,1.675C8.175,8.175,7.425,8.925,6.5,8.925z M19,18h-2.972c-0.787,0-1.306-0.516-1.522-1.041V18h-2.949V10h2.895v1.393c0,0,0.433-0.8,1.352-0.8c0.922,0,1.713,0.797,1.713,2.585V18z"/>
</svg>